<?xml version="1.0" encoding="UTF-8" standalone="no"?>
<!DOCTYPE svg PUBLIC "-//W3C//DTD SVG 1.1//EN" "http://www.w3.org/Graphics/SVG/1.1/DTD/svg11.dtd">
<svg width="100%" height="100%" viewBox="0 0 580 762" version="1.1" xmlns="http://www.w3.org/2000/svg" xmlns:xlink="http://www.w3.org/1999/xlink" xml:space="preserve" xmlns:serif="http://www.serif.com/" style="fill-rule:evenodd;clip-rule:evenodd;stroke-linejoin:round;stroke-miterlimit:2;">
    <g transform="matrix(1.0052,0,0,1.05844,0,0)">
        <rect x="0" y="0" width="577" height="86.601" style="fill:none;"/>
        <clipPath id="_clip1">
            <rect x="0" y="0" width="577" height="86.601"/>
        </clipPath>
        <g clip-path="url(#_clip1)">
            <g id="Deselected-Object" serif:id="Deselected Object" transform="matrix(0.994828,0,0,0.944783,85.879,5.70608)">
                <rect x="9" y="9.221" width="65.361" height="85.81" style="fill:rgb(139,139,139);"/>
                <g transform="matrix(1.01156,0,0,1.002,-0.104026,-0.189622)">
                    <rect x="3.031" y="6.28" width="5.969" height="88.752" style="fill:white;"/>
                </g>
                <g transform="matrix(0.997445,0,0,0.997445,0.0448542,0.0456092)">
                    <rect x="8.958" y="9.138" width="2.937" height="3.053" style="fill:white;"/>
                </g>
                <g transform="matrix(1.00038,0,0,1.01888,0.0542464,-0.0596375)">
                    <rect x="5.894" y="3.158" width="68.384" height="5.95" style="fill:white;"/>
                </g>
                <g transform="matrix(1.01583,0,0,0.967045,-1.20591,0.303872)">
                    <rect x="74.389" y="6.13" width="2.925" height="3.091" style="fill:rgb(198,198,198);"/>
                </g>
                <g transform="matrix(1,0,0,3.83579,0,-26.1481)">
                    <rect x="74.361" y="9.221" width="5.911" height="20.944" style="fill:rgb(85,85,85);"/>
                </g>
                <g transform="matrix(1.01583,0,0,0.967045,-1.20591,83.6307)">
                    <rect x="74.389" y="6.13" width="2.925" height="3.091" style="fill:rgb(85,85,85);"/>
                </g>
                <g transform="matrix(1,0,0,4.52056,-0.0472777,-304.369)">
                    <rect x="0" y="68.029" width="3.01" height="18.477"/>
                </g>
                <g transform="matrix(1,0,0,1,-0.0472777,0.180233)">
                    <rect x="3.01" y="2.978" width="2.988" height="2.944"/>
                </g>
                <g transform="matrix(6.84117,0,0,1,-35.2608,0.180233)">
                    <rect x="6.029" y="0" width="9.995" height="2.978"/>
                </g>
                <g transform="matrix(1,0,0,1,-0.0472777,0.180233)">
                    <rect x="74.408" y="2.978" width="2.971" height="3.074"/>
                </g>
                <g transform="matrix(1,0,0,1,-0.0472777,0.180233)">
                    <rect x="77.379" y="6.052" width="2.94" height="2.989"/>
                </g>
                <g transform="matrix(1,0,0,25.9504,2.89252,-147.824)">
                    <rect x="77.379" y="6.052" width="2.94" height="2.989"/>
                </g>
            </g>
            <g id="Deselected-Object1" serif:id="Deselected Object" transform="matrix(0.994828,0,0,0.944783,171.527,5.70608)">
                <rect x="9" y="9.221" width="65.361" height="85.81" style="fill:rgb(139,139,139);"/>
                <g transform="matrix(1.01156,0,0,1.002,-0.104026,-0.189622)">
                    <rect x="3.031" y="6.28" width="5.969" height="88.752" style="fill:white;"/>
                </g>
                <g transform="matrix(0.997445,0,0,0.997445,0.0448542,0.0456092)">
                    <rect x="8.958" y="9.138" width="2.937" height="3.053" style="fill:white;"/>
                </g>
                <g transform="matrix(1.00038,0,0,1.01888,0.0542464,-0.0596375)">
                    <rect x="5.894" y="3.158" width="68.384" height="5.95" style="fill:white;"/>
                </g>
                <g transform="matrix(1.01583,0,0,0.967045,-1.20591,0.303872)">
                    <rect x="74.389" y="6.13" width="2.925" height="3.091" style="fill:rgb(198,198,198);"/>
                </g>
                <g transform="matrix(1,0,0,3.83579,0,-26.1481)">
                    <rect x="74.361" y="9.221" width="5.911" height="20.944" style="fill:rgb(85,85,85);"/>
                </g>
                <g transform="matrix(1.01583,0,0,0.967045,-1.20591,83.6307)">
                    <rect x="74.389" y="6.13" width="2.925" height="3.091" style="fill:rgb(85,85,85);"/>
                </g>
                <g transform="matrix(1,0,0,4.52056,-0.0472777,-304.369)">
                    <rect x="0" y="68.029" width="3.01" height="18.477"/>
                </g>
                <g transform="matrix(1,0,0,1,-0.0472777,0.180233)">
                    <rect x="3.01" y="2.978" width="2.988" height="2.944"/>
                </g>
                <g transform="matrix(6.84117,0,0,1,-35.2608,0.180233)">
                    <rect x="6.029" y="0" width="9.995" height="2.978"/>
                </g>
                <g transform="matrix(1,0,0,1,-0.0472777,0.180233)">
                    <rect x="74.408" y="2.978" width="2.971" height="3.074"/>
                </g>
                <g transform="matrix(1,0,0,1,-0.0472777,0.180233)">
                    <rect x="77.379" y="6.052" width="2.94" height="2.989"/>
                </g>
                <g transform="matrix(1,0,0,25.9504,2.89252,-147.824)">
                    <rect x="77.379" y="6.052" width="2.94" height="2.989"/>
                </g>
            </g>
            <g id="Deselected-Object2" serif:id="Deselected Object" transform="matrix(0.994828,0,0,0.944783,494.219,5.70608)">
                <rect x="9" y="9.221" width="65.361" height="85.81" style="fill:rgb(139,139,139);"/>
                <g transform="matrix(1.01156,0,0,1.002,-0.104026,-0.189622)">
                    <rect x="3.031" y="6.28" width="5.969" height="88.752" style="fill:white;"/>
                </g>
                <g transform="matrix(0.997445,0,0,0.997445,0.0448542,0.0456092)">
                    <rect x="8.958" y="9.138" width="2.937" height="3.053" style="fill:white;"/>
                </g>
                <g transform="matrix(1.00038,0,0,1.01888,0.0542464,-0.0596375)">
                    <rect x="5.894" y="3.158" width="68.384" height="5.95" style="fill:white;"/>
                </g>
                <g transform="matrix(1.01583,0,0,0.967045,-1.20591,0.303872)">
                    <rect x="74.389" y="6.13" width="2.925" height="3.091" style="fill:rgb(198,198,198);"/>
                </g>
                <g transform="matrix(1,0,0,3.83579,0,-26.1481)">
                    <rect x="74.361" y="9.221" width="5.911" height="20.944" style="fill:rgb(85,85,85);"/>
                </g>
                <g transform="matrix(1.01583,0,0,0.967045,-1.20591,83.6307)">
                    <rect x="74.389" y="6.13" width="2.925" height="3.091" style="fill:rgb(85,85,85);"/>
                </g>
                <g transform="matrix(1,0,0,4.52056,-0.0472777,-304.369)">
                    <rect x="0" y="68.029" width="3.01" height="18.477"/>
                </g>
                <g transform="matrix(1,0,0,1,-0.0472777,0.180233)">
                    <rect x="3.01" y="2.978" width="2.988" height="2.944"/>
                </g>
                <g transform="matrix(6.84117,0,0,1,-35.2608,0.180233)">
                    <rect x="6.029" y="0" width="9.995" height="2.978"/>
                </g>
                <g transform="matrix(1,0,0,1,-0.0472777,0.180233)">
                    <rect x="74.408" y="2.978" width="2.971" height="3.074"/>
                </g>
                <g transform="matrix(1,0,0,1,-0.0472777,0.180233)">
                    <rect x="77.379" y="6.052" width="2.94" height="2.989"/>
                </g>
                <g transform="matrix(1,0,0,25.9504,2.89252,-147.824)">
                    <rect x="77.379" y="6.052" width="2.94" height="2.989"/>
                </g>
            </g>
        </g>
    </g>
    <g id="Bar" transform="matrix(0.97665,0,0,1,13.4141,0)">
        <g transform="matrix(1.01583,0,0,0.967045,495.447,83.6612)">
            <rect x="74.389" y="6.13" width="2.925" height="3.091" style="fill:rgb(198,198,198);"/>
        </g>
        <g transform="matrix(44.1035,0,0,1,-3290.22,1.33227e-15)">
            <rect x="74.361" y="86.601" width="13.187" height="5.947" style="fill:white;"/>
        </g>
    </g>
    <g id="Selected-Object-Front" serif:id="Selected Object Front" transform="matrix(1,0,0,1,0.0472777,-0.180233)">
        <rect x="9" y="9.221" width="65.361" height="85.81" style="fill:rgb(198,198,198);"/>
        <g transform="matrix(1.01156,0,0,1.002,-0.104026,-0.189622)">
            <rect x="3.031" y="6.28" width="5.969" height="88.752" style="fill:white;"/>
        </g>
        <g transform="matrix(0.997445,0,0,0.997445,0.0448542,0.0456092)">
            <rect x="8.958" y="9.138" width="2.937" height="3.053" style="fill:white;"/>
        </g>
        <g transform="matrix(1.00038,0,0,1.01888,0.0542464,-0.0596375)">
            <rect x="5.894" y="3.158" width="68.384" height="5.95" style="fill:white;"/>
        </g>
        <g transform="matrix(1.01583,0,0,0.967045,-1.20591,0.303872)">
            <rect x="74.389" y="6.13" width="2.925" height="3.091" style="fill:rgb(198,198,198);"/>
        </g>
        <g transform="matrix(1,0,0,3.83579,0,-26.1481)">
            <rect x="74.361" y="9.221" width="5.911" height="20.944" style="fill:rgb(85,85,85);"/>
        </g>
        <g transform="matrix(1.01583,0,0,0.967045,-1.20591,83.6307)">
            <rect x="74.389" y="6.13" width="2.925" height="3.091" style="fill:rgb(85,85,85);"/>
        </g>
        <g transform="matrix(1.06173,0,0,4.7996,-0.140168,-323.352)">
            <rect x="0" y="68.029" width="3.01" height="18.477"/>
        </g>
        <g transform="matrix(1,0,0,1,-0.0472777,0.180233)">
            <rect x="3.01" y="2.978" width="2.988" height="2.944"/>
        </g>
        <g transform="matrix(6.84117,0,0,1,-35.2608,0.180233)">
            <rect x="6.029" y="0" width="9.995" height="2.978"/>
        </g>
        <g transform="matrix(1,0,0,1,-0.0472777,0.180233)">
            <rect x="74.408" y="2.978" width="2.971" height="3.074"/>
        </g>
        <g transform="matrix(1,0,0,1,-0.0472777,0.180233)">
            <rect x="77.379" y="6.052" width="2.94" height="2.989"/>
        </g>
        <g transform="matrix(1,0,0,25.9504,2.89252,-147.824)">
            <rect x="77.379" y="6.052" width="2.94" height="2.989"/>
        </g>
    </g>
    <g id="Border-Line-Front-Selected" serif:id="Border Line Front Selected" transform="matrix(166.67,0,0,1,-12815.7,77.56)">
        <rect x="77.379" y="6.052" width="2.94" height="2.989"/>
    </g>
    <g id="Border-Edge" serif:id="Border Edge">
        <g transform="matrix(1.02383,0,0,1,-79.2233,80.5488)">
            <rect x="77.379" y="6.052" width="2.94" height="2.989"/>
        </g>
        <g transform="matrix(1.02383,0,0,1,-79.2233,83.5376)">
            <rect x="77.379" y="6.052" width="2.94" height="2.989"/>
        </g>
    </g>
    <g id="Border-Edge1" serif:id="Border Edge" transform="matrix(-1,0,0,1,574.105,-2.98878)">
        <g transform="matrix(1.02383,0,0,1,-79.2233,83.5376)">
            <rect x="77.379" y="6.052" width="2.94" height="2.989"/>
        </g>
        <g transform="matrix(1.02383,0,0,1,-82.2331,86.5264)">
            <rect x="77.379" y="6.052" width="2.94" height="2.989"/>
        </g>
    </g>
</svg>
